<svg width="40" height="40" viewBox="0 0 40 40" fill="none" xmlns="http://www.w3.org/2000/svg">
<g clip-path="url(#clip0_311_55)">
<g filter="url(#filter0_b_311_55)">
<mask id="path-1-inside-1_311_55" fill="white">
<path fill-rule="evenodd" clip-rule="evenodd" d="M2.79984 23.3457V23.8258C14.3741 23.8258 25.8702 23.8258 37.411 23.8146V23.3345V8.31841C37.411 7.26895 36.9422 6.80005 35.8707 6.80005H4.3401C3.25745 6.80005 2.79984 7.26895 2.79984 8.32957V23.3457ZM19.0567 18.2975C18.5901 18.5674 18.1203 18.8392 17.6444 19.1144V12.5497C18.8523 13.2534 20.0422 13.9389 21.2456 14.6323C21.9325 15.0281 22.6238 15.4264 23.3254 15.8321C21.8789 16.6649 20.483 17.4724 19.0567 18.2975ZM32.0101 29.8189C31.8998 29.5482 31.7869 29.2712 31.674 28.9837H31.6748C33.1813 28.9837 34.5985 28.9837 35.9934 28.9726C36.7524 28.9614 37.3328 28.5372 37.3662 27.8561C37.4048 27.2079 37.3954 26.5544 37.3859 25.8955C37.3817 25.6011 37.3774 25.3057 37.3774 25.0092H2.78857V27.3761C2.78857 28.5037 3.25735 28.9726 4.37348 28.9726H8.51432C8.16841 29.8432 7.84481 30.6468 7.52122 31.4504L7.52096 31.4511C7.38703 31.8083 7.33122 32.1656 7.77767 32.3331C8.21296 32.5005 8.42503 32.2102 8.57012 31.853C8.6682 31.611 8.76819 31.37 8.86814 31.129C9.10941 30.5475 9.35039 29.9666 9.56348 29.3745C9.68625 29.0507 9.85367 28.9726 10.1773 28.9726C16.796 28.9837 23.4146 28.9837 30.0333 28.9726C30.3793 28.9726 30.5244 29.0842 30.636 29.3968C30.8892 30.069 31.1594 30.7241 31.4318 31.3845C31.4716 31.481 31.5114 31.5776 31.5512 31.6744C31.5791 31.7358 31.6042 31.7944 31.6293 31.853C31.6545 31.9116 31.6796 31.9702 31.7075 32.0316C31.8526 32.3554 32.1539 32.5117 32.4218 32.3219C32.6004 32.1991 32.7566 31.8083 32.6897 31.6074C32.4962 31.0112 32.2597 30.4312 32.0101 29.8189ZM24.3187 27.2086H20.0774C19.6091 27.2086 19.1395 27.2074 18.6694 27.2061C17.7282 27.2036 16.7852 27.2011 15.8473 27.2086C15.4678 27.2086 15.0995 27.1639 15.0883 26.6839C15.0772 26.1926 15.4455 26.0922 15.8584 26.0922H24.3299C24.7317 26.0922 25.1112 26.1815 25.1112 26.6727C25.1112 27.1863 24.7093 27.2086 24.3187 27.2086Z"/>
</mask>
<path fill-rule="evenodd" clip-rule="evenodd" d="M2.79984 23.3457V23.8258C14.3741 23.8258 25.8702 23.8258 37.411 23.8146V23.3345V8.31841C37.411 7.26895 36.9422 6.80005 35.8707 6.80005H4.3401C3.25745 6.80005 2.79984 7.26895 2.79984 8.32957V23.3457ZM19.0567 18.2975C18.5901 18.5674 18.1203 18.8392 17.6444 19.1144V12.5497C18.8523 13.2534 20.0422 13.9389 21.2456 14.6323C21.9325 15.0281 22.6238 15.4264 23.3254 15.8321C21.8789 16.6649 20.483 17.4724 19.0567 18.2975ZM32.0101 29.8189C31.8998 29.5482 31.7869 29.2712 31.674 28.9837H31.6748C33.1813 28.9837 34.5985 28.9837 35.9934 28.9726C36.7524 28.9614 37.3328 28.5372 37.3662 27.8561C37.4048 27.2079 37.3954 26.5544 37.3859 25.8955C37.3817 25.6011 37.3774 25.3057 37.3774 25.0092H2.78857V27.3761C2.78857 28.5037 3.25735 28.9726 4.37348 28.9726H8.51432C8.16841 29.8432 7.84481 30.6468 7.52122 31.4504L7.52096 31.4511C7.38703 31.8083 7.33122 32.1656 7.77767 32.3331C8.21296 32.5005 8.42503 32.2102 8.57012 31.853C8.6682 31.611 8.76819 31.37 8.86814 31.129C9.10941 30.5475 9.35039 29.9666 9.56348 29.3745C9.68625 29.0507 9.85367 28.9726 10.1773 28.9726C16.796 28.9837 23.4146 28.9837 30.0333 28.9726C30.3793 28.9726 30.5244 29.0842 30.636 29.3968C30.8892 30.069 31.1594 30.7241 31.4318 31.3845C31.4716 31.481 31.5114 31.5776 31.5512 31.6744C31.5791 31.7358 31.6042 31.7944 31.6293 31.853C31.6545 31.9116 31.6796 31.9702 31.7075 32.0316C31.8526 32.3554 32.1539 32.5117 32.4218 32.3219C32.6004 32.1991 32.7566 31.8083 32.6897 31.6074C32.4962 31.0112 32.2597 30.4312 32.0101 29.8189ZM24.3187 27.2086H20.0774C19.6091 27.2086 19.1395 27.2074 18.6694 27.2061C17.7282 27.2036 16.7852 27.2011 15.8473 27.2086C15.4678 27.2086 15.0995 27.1639 15.0883 26.6839C15.0772 26.1926 15.4455 26.0922 15.8584 26.0922H24.3299C24.7317 26.0922 25.1112 26.1815 25.1112 26.6727C25.1112 27.1863 24.7093 27.2086 24.3187 27.2086Z" fill="#E60000"/>
<path d="M2.79984 23.8258H1.79984V24.8258H2.79984V23.8258ZM37.411 23.8146L37.412 24.8146L38.411 24.8136V23.8146H37.411ZM17.6444 19.1144H16.6444V20.8477L18.1449 19.9801L17.6444 19.1144ZM19.0567 18.2975L18.5559 17.4319L18.5559 17.4319L19.0567 18.2975ZM17.6444 12.5497L18.1477 11.6856L16.6444 10.8099V12.5497H17.6444ZM21.2456 14.6323L21.7449 13.7658L21.7449 13.7658L21.2456 14.6323ZM23.3254 15.8321L23.8244 16.6987L25.3264 15.8339L23.826 14.9664L23.3254 15.8321ZM31.674 28.9837V27.9837H30.2069L30.7432 29.3493L31.674 28.9837ZM32.0101 29.8189L32.9362 29.4414L32.9362 29.4414L32.0101 29.8189ZM35.9934 28.9726L36.0014 29.9726L36.0081 29.9725L35.9934 28.9726ZM37.3662 27.8561L36.368 27.7967L36.3675 27.807L37.3662 27.8561ZM37.3859 25.8955L38.3858 25.8811L38.3858 25.8811L37.3859 25.8955ZM37.3774 25.0092H38.3774V24.0092H37.3774V25.0092ZM2.78857 25.0092V24.0092H1.78857V25.0092H2.78857ZM8.51432 28.9726L9.44365 29.3418L9.98768 27.9726H8.51432V28.9726ZM7.52122 31.4504L6.5936 31.0769L6.5936 31.0769L7.52122 31.4504ZM7.52096 31.4511L6.59334 31.0776L6.58883 31.0887L6.5846 31.1L7.52096 31.4511ZM7.77767 32.3331L8.13675 31.3997L8.12888 31.3968L7.77767 32.3331ZM8.57012 31.853L9.49663 32.2293L9.4969 32.2286L8.57012 31.853ZM8.86814 31.129L9.79181 31.5122L9.79181 31.5122L8.86814 31.129ZM9.56348 29.3745L8.62845 29.0199L8.62543 29.0279L8.62256 29.0359L9.56348 29.3745ZM10.1773 28.9726L10.179 27.9726H10.1773V28.9726ZM30.0333 28.9726V27.9726L30.0316 27.9726L30.0333 28.9726ZM30.636 29.3968L29.6942 29.7331L29.6971 29.7412L29.7002 29.7493L30.636 29.3968ZM31.4318 31.3845L32.3562 31.0033L32.3562 31.0033L31.4318 31.3845ZM31.5512 31.6744L30.6265 32.055L30.6334 32.0717L30.6408 32.0881L31.5512 31.6744ZM31.7075 32.0316L32.62 31.6227L32.6179 31.6179L31.7075 32.0316ZM32.4218 32.3219L31.8551 31.4978L31.8437 31.5059L32.4218 32.3219ZM32.6897 31.6074L31.7385 31.9161L31.741 31.9235L32.6897 31.6074ZM18.6694 27.2061L18.6721 26.2061L18.6721 26.2061L18.6694 27.2061ZM15.8473 27.2086L15.8473 28.2086L15.8552 28.2086L15.8473 27.2086ZM15.0883 26.6839L14.0886 26.7066L14.0886 26.7071L15.0883 26.6839ZM3.79984 23.8258V23.3457H1.79984V23.8258H3.79984ZM37.41 22.8146C25.8698 22.8258 14.3742 22.8258 2.79984 22.8258V24.8258C14.374 24.8258 25.8706 24.8258 37.412 24.8146L37.41 22.8146ZM36.411 23.3345V23.8146H38.411V23.3345H36.411ZM36.411 8.31841V23.3345H38.411V8.31841H36.411ZM35.8707 7.80005C36.2856 7.80005 36.3569 7.89396 36.3394 7.87663C36.3194 7.85686 36.411 7.9194 36.411 8.31841H38.411C38.411 7.66796 38.2682 6.97132 37.7459 6.45474C37.2261 5.94059 36.5273 5.80005 35.8707 5.80005V7.80005ZM4.3401 7.80005H35.8707V5.80005H4.3401V7.80005ZM3.79984 8.32957C3.79984 7.91669 3.89243 7.85283 3.87118 7.87409C3.85005 7.89523 3.91673 7.80005 4.3401 7.80005V5.80005C3.68082 5.80005 2.97737 5.93932 2.45677 6.46007C1.93605 6.98094 1.79984 7.68184 1.79984 8.32957H3.79984ZM3.79984 23.3457V8.32957H1.79984V23.3457H3.79984ZM18.1449 19.9801C18.6209 19.7049 19.0909 19.433 19.5574 19.1631L18.5559 17.4319C18.0894 17.7018 17.6196 17.9736 17.1438 18.2487L18.1449 19.9801ZM16.6444 12.5497V19.1144H18.6444V12.5497H16.6444ZM21.7449 13.7658C20.5411 13.0723 19.3533 12.3879 18.1477 11.6856L17.141 13.4138C18.3514 14.1189 19.5433 14.8056 20.7464 15.4988L21.7449 13.7658ZM23.826 14.9664C23.1236 14.5602 22.4316 14.1615 21.7449 13.7658L20.7464 15.4988C21.4334 15.8946 22.124 16.2925 22.8249 16.6978L23.826 14.9664ZM19.5574 19.1631C20.9839 18.3379 22.3789 17.5309 23.8244 16.6987L22.8265 14.9654C21.3789 15.7989 19.9822 16.6069 18.5559 17.4319L19.5574 19.1631ZM30.7432 29.3493C30.8588 29.6437 30.9741 29.9265 31.0841 30.1964L32.9362 29.4414C32.8255 29.1699 32.715 28.8988 32.6048 28.6182L30.7432 29.3493ZM31.6748 27.9837H31.674V29.9837H31.6748V27.9837ZM35.9854 27.9726C34.5952 27.9837 33.182 27.9837 31.6748 27.9837V29.9837C33.1805 29.9837 34.6018 29.9837 36.0014 29.9725L35.9854 27.9726ZM36.3675 27.807C36.3659 27.8381 36.3596 27.8502 36.3582 27.8529C36.3565 27.8563 36.3509 27.866 36.3326 27.8804C36.2928 27.9118 36.1829 27.9697 35.9787 27.9727L36.0081 29.9725C37.1017 29.9564 38.2971 29.2862 38.365 27.9052L36.3675 27.807ZM36.386 25.9099C36.3956 26.5752 36.404 27.1916 36.368 27.7967L38.3645 27.9155C38.4056 27.2242 38.3952 26.5335 38.3858 25.8811L36.386 25.9099ZM36.3774 25.0092C36.3774 25.3141 36.3818 25.6167 36.386 25.9099L38.3858 25.8811C38.3815 25.5855 38.3774 25.2973 38.3774 25.0092H36.3774ZM2.78857 26.0092H37.3774V24.0092H2.78857V26.0092ZM3.78857 27.3761V25.0092H1.78857V27.3761H3.78857ZM4.37348 27.9726C4.15916 27.9726 4.02574 27.9494 3.94802 27.9256C3.91116 27.9143 3.8907 27.904 3.8813 27.8986C3.87656 27.8959 3.87396 27.894 3.87289 27.8931C3.87231 27.8927 3.87198 27.8924 3.87183 27.8923C3.87169 27.8922 3.87162 27.8921 3.8716 27.8921C3.87157 27.8921 3.87149 27.892 3.87132 27.8918C3.87115 27.8916 3.87081 27.8912 3.8703 27.8905C3.86934 27.8892 3.86728 27.8863 3.86434 27.8812C3.85851 27.871 3.84786 27.8494 3.83626 27.8112C3.81187 27.7307 3.78857 27.594 3.78857 27.3761H1.78857C1.78857 28.048 1.92346 28.7693 2.45336 29.3023C2.98464 29.8366 3.70486 29.9726 4.37348 29.9726V27.9726ZM8.51432 27.9726H4.37348V29.9726H8.51432V27.9726ZM8.44884 31.8239C8.77234 31.0206 9.09677 30.2149 9.44365 29.3418L7.58498 28.6033C7.24005 29.4715 6.91728 30.2731 6.5936 31.0769L8.44884 31.8239ZM8.44859 31.8246L8.44885 31.8239L6.5936 31.0769L6.59334 31.0776L8.44859 31.8246ZM8.12888 31.3968C8.13191 31.3979 8.20217 31.4251 8.27903 31.5119C8.36166 31.6052 8.40425 31.7135 8.41878 31.8032C8.43125 31.8801 8.42019 31.9232 8.42276 31.9102C8.42506 31.8986 8.43342 31.8659 8.45732 31.8021L6.5846 31.1C6.5116 31.2948 6.37419 31.6892 6.44456 32.1233C6.48421 32.3678 6.58818 32.6192 6.78173 32.8378C6.9695 33.0498 7.2002 33.1845 7.42646 33.2694L8.12888 31.3968ZM7.64362 31.4767C7.61998 31.5349 7.60477 31.562 7.5999 31.5697C7.59451 31.5783 7.6154 31.5414 7.67418 31.4963C7.74173 31.4445 7.83937 31.3978 7.95449 31.385C8.06276 31.373 8.13019 31.3972 8.13674 31.3997L7.41861 33.2664C7.91266 33.4564 8.45062 33.4212 8.89126 33.0833C9.23996 32.8159 9.41128 32.4394 9.49662 32.2293L7.64362 31.4767ZM7.94447 30.7459C7.84478 30.9861 7.74322 31.231 7.64335 31.4774L9.4969 32.2286C9.59318 31.991 9.69161 31.7538 9.79181 31.5122L7.94447 30.7459ZM8.62256 29.0359C8.41891 29.6017 8.18726 30.1606 7.94447 30.7459L9.79181 31.5122C10.0316 30.9343 10.2819 30.3314 10.5044 29.7131L8.62256 29.0359ZM10.1773 27.9726C9.96022 27.9726 9.60915 27.9927 9.27155 28.2001C8.91247 28.4207 8.73115 28.7491 8.62845 29.0199L10.4985 29.7291C10.5186 29.6761 10.4824 29.8035 10.3186 29.9041C10.1763 29.9916 10.0708 29.9726 10.1773 29.9726V27.9726ZM30.0316 27.9726C23.4141 27.9837 16.7966 27.9837 10.179 27.9726L10.1757 29.9726C16.7954 29.9837 23.4152 29.9837 30.035 29.9726L30.0316 27.9726ZM31.5778 29.0606C31.4949 28.8284 31.3417 28.4959 31.005 28.2546C30.6659 28.0116 30.2972 27.9726 30.0333 27.9726V29.9726C30.1154 29.9726 29.9922 29.9893 29.84 29.8803C29.6903 29.773 29.6655 29.6526 29.6942 29.7331L31.5778 29.0606ZM32.3562 31.0033C32.0829 30.3406 31.8187 29.6996 31.5718 29.0443L29.7002 29.7493C29.9597 30.4383 30.2359 31.1077 30.5073 31.7658L32.3562 31.0033ZM32.4759 31.2937C32.436 31.1966 32.396 31.0997 32.3562 31.0033L30.5073 31.7658C30.5471 31.8623 30.5868 31.9586 30.6265 32.055L32.4759 31.2937ZM32.5485 31.4591C32.524 31.4018 32.4947 31.3335 32.4616 31.2607L30.6408 32.0881C30.6635 32.1381 30.6845 32.187 30.7102 32.2468L32.5485 31.4591ZM32.6179 31.6179C32.5952 31.5679 32.5742 31.519 32.5485 31.4591L30.7102 32.2468C30.7347 32.3042 30.764 32.3725 30.7971 32.4453L32.6179 31.6179ZM31.8437 31.5059C31.9048 31.4627 31.9976 31.4194 32.1158 31.4073C32.2332 31.3953 32.3391 31.4179 32.4211 31.4539C32.5745 31.5214 32.6179 31.6179 32.62 31.6227L30.7949 32.4406C30.9421 32.7691 31.2088 33.1057 31.6161 33.2848C32.0659 33.4826 32.5804 33.4351 32.9999 33.1378L31.8437 31.5059ZM31.741 31.9235C31.6946 31.7845 31.7062 31.685 31.7083 31.6673C31.7117 31.6391 31.7164 31.63 31.7142 31.6357C31.7123 31.6406 31.7124 31.6378 31.721 31.6251C31.7246 31.6198 31.7635 31.561 31.8552 31.4979L32.9884 33.1459C33.3167 32.9201 33.4956 32.5759 33.5814 32.3522C33.6616 32.1434 33.7826 31.7241 33.6384 31.2912L31.741 31.9235ZM31.0841 30.1964C31.3362 30.8148 31.5583 31.3608 31.7385 31.9161L33.6408 31.2986C33.4341 30.6617 33.1833 30.0476 32.9362 29.4414L31.0841 30.1964ZM20.0774 28.2086H24.3187V26.2086H20.0774V28.2086ZM18.6668 28.2061C19.1366 28.2074 19.6075 28.2086 20.0774 28.2086V26.2086C19.6106 26.2086 19.1423 26.2074 18.6721 26.2061L18.6668 28.2061ZM15.8552 28.2086C16.787 28.2012 17.7246 28.2036 18.6668 28.2061L18.6721 26.2061C17.7317 26.2036 16.7835 26.2011 15.8393 26.2086L15.8552 28.2086ZM14.0886 26.7071C14.0943 26.9533 14.1479 27.2223 14.2956 27.4741C14.4475 27.7333 14.6606 27.9086 14.8788 28.0189C15.2574 28.2101 15.6702 28.2086 15.8473 28.2086V26.2086C15.7665 26.2086 15.7242 26.2058 15.7017 26.2028C15.6777 26.1996 15.7157 26.2009 15.7805 26.2337C15.8578 26.2727 15.953 26.3468 16.0209 26.4627C16.0845 26.5711 16.0879 26.6544 16.088 26.6606L14.0886 26.7071ZM15.8584 25.0922C15.6136 25.0922 15.1831 25.1132 14.7948 25.3493C14.3019 25.6491 14.0762 26.1602 14.0886 26.7066L16.0881 26.6612C16.0881 26.6632 16.089 26.7343 16.0395 26.8329C15.9866 26.9382 15.9068 27.0139 15.8339 27.0583C15.7709 27.0965 15.7305 27.1014 15.7442 27.0988C15.7565 27.0966 15.7916 27.0922 15.8584 27.0922V25.0922ZM24.3299 25.0922H15.8584V27.0922H24.3299V25.0922ZM26.1112 26.6727C26.1112 26.4211 26.0621 26.1524 25.9253 25.8993C25.7856 25.6408 25.585 25.4556 25.371 25.3321C24.9852 25.1095 24.5629 25.0922 24.3299 25.0922V27.0922C24.3973 27.0922 24.4343 27.0962 24.4497 27.0989C24.4667 27.1019 24.4306 27.0985 24.3714 27.0643C24.3024 27.0246 24.2218 26.9538 24.1658 26.8502C24.1128 26.752 24.1112 26.6787 24.1112 26.6727H26.1112ZM24.3187 28.2086C24.4737 28.2086 24.901 28.2186 25.2849 28.0392C25.512 27.933 25.7418 27.7558 25.9039 27.4806C26.0608 27.2143 26.1112 26.9292 26.1112 26.6727H24.1112C24.1112 26.6725 24.1111 26.6505 24.1199 26.6134C24.129 26.5749 24.1469 26.5228 24.1806 26.4656C24.2552 26.339 24.3601 26.2637 24.438 26.2273C24.5012 26.1978 24.5344 26.1991 24.4987 26.203C24.4647 26.2067 24.4136 26.2086 24.3187 26.2086V28.2086Z" fill="#E60000" mask="url(#path-1-inside-1_311_55)"/>
</g>
</g>
<defs>
<filter id="filter0_b_311_55" x="-9.21143" y="-5.19995" width="58.6226" height="49.604" filterUnits="userSpaceOnUse" color-interpolation-filters="sRGB">
<feFlood flood-opacity="0" result="BackgroundImageFix"/>
<feGaussianBlur in="BackgroundImageFix" stdDeviation="6"/>
<feComposite in2="SourceAlpha" operator="in" result="effect1_backgroundBlur_311_55"/>
<feBlend mode="normal" in="SourceGraphic" in2="effect1_backgroundBlur_311_55" result="shape"/>
</filter>
<clipPath id="clip0_311_55">
<rect width="34.6" height="25.6" fill="white" transform="translate(2.7998 6.80005)"/>
</clipPath>
</defs>
</svg>
